<?xml version="1.0" encoding="UTF-8" standalone="no"?><!DOCTYPE svg PUBLIC "-//W3C//DTD SVG 1.1//EN" "http://www.w3.org/Graphics/SVG/1.1/DTD/svg11.dtd"><svg width="100%" height="100%" viewBox="0 0 16 16" version="1.1" xmlns="http://www.w3.org/2000/svg" xmlns:xlink="http://www.w3.org/1999/xlink" xml:space="preserve" style="fill-rule:evenodd;clip-rule:evenodd;stroke-linejoin:round;stroke-miterlimit:1.41421;"><rect x="1" y="1" width="14" height="14" style="fill:#fff;fill-rule:nonzero;"/><path d="M1,1l0,14l14,0l0,-14l-14,0Zm1,1l12,0l0,12l-12,0l0,-12Z" style="fill:#999;fill-rule:nonzero;"/><path d="M4.27,2.964l0,10.221l7.665,0l0,-7.666l-2.555,-2.555l-5.11,0Z" style="fill:#a7a7a7;fill-rule:nonzero;"/><path d="M9.38,5.507l0,-2.543l2.555,2.555l-2.555,-0.012Z" style="fill:#535353;fill-opacity:0.65;fill-rule:nonzero;"/><path d="M11.935,5.535l0,3.178l-2.555,-3.194l2.555,0.016Z" style="fill:#d3d3d3;fill-opacity:0.15;fill-rule:nonzero;"/><path d="M9.38,5.519l0,-2.555l2.555,2.555l-2.555,0Z" style="fill:#fff;fill-opacity:0.65;fill-rule:nonzero;"/><rect x="5.547" y="6.797" width="1.278" height="0.639" style="fill:#fff;"/><rect x="7.464" y="6.797" width="1.278" height="0.639" style="fill:#fff;"/><rect x="9.38" y="6.797" width="1.278" height="0.639" style="fill:#fff;"/><rect x="5.547" y="8.074" width="1.278" height="0.639" style="fill:#fff;"/><rect x="7.464" y="8.074" width="1.278" height="0.639" style="fill:#fff;"/><rect x="9.38" y="8.074" width="1.278" height="0.639" style="fill:#fff;"/><rect x="5.547" y="9.352" width="1.278" height="0.639" style="fill:#fff;"/><rect x="7.464" y="9.352" width="1.278" height="0.639" style="fill:#fff;"/><rect x="9.38" y="9.352" width="1.278" height="0.639" style="fill:#fff;"/><rect x="5.547" y="10.629" width="1.278" height="0.639" style="fill:#fff;"/><rect x="7.464" y="10.629" width="1.278" height="0.639" style="fill:#fff;"/><rect x="9.38" y="10.629" width="1.278" height="0.639" style="fill:#fff;"/><path d="M11.935,5.535l0,3.178l-2.555,-3.194l2.555,0.016Z" style="fill-opacity:0.15;fill-rule:nonzero;"/></svg>